<svg xmlns="http://www.w3.org/2000/svg" id="Camada_1" data-name="Camada 1" viewBox="0 0 90 50"><g id="Camada_1-2" data-name="Camada 1"><g id="Grupo_511" data-name="Grupo 511"><g><path d="M47.3,47.4c-8.4-1.4-14.3-6-20.2-10.4l-2.9.6c8.8,7.9,15.1,10.3,22.1,11.6,21.8,3.9,41.4-9.4,42.1-29.2-2.1,19.3-19.3,31.1-41.1,27.4Z" fill="#d6161c" stroke-width="0"></path><path d="M29,10.7c-6.6-1.3-13-.8-18.7.8,1.8,8.2,7,18,17,25.3-.8-3.3-1.7-8.4-1.3-13.2.4-5.7,2.1-10.7,3.1-12.9Z" fill="#d6161c" stroke-width="0"></path><path d="M9.5,6.5c0,1.3.2,2.6.5,3.9,5.3-2,11.3-2.6,17.7-1.6-2.1-.6-5.6-1.8-8.9-3.4C15.1,3.7,10.2.4,9.9.2c-.2.7-.5,2.5-.4,6.3Z" fill="#d6161c" stroke-width="0"></path><path d="M9.8.3c-.5.8-2.9,4.9-4.8,8.3C3.3,11.5,0,16.3,0,16.7c2.7-2.6,5.6-4.5,8.9-5.9-.6-5.8.2-9,.8-10.5Z" fill="#d6161c" stroke-width="0"></path><path d="M0,16.8c.8.7,7.8,7.1,13.2,11.9,3.5,3.1,7,5.9,9.7,8-9.3-9-12.5-17.6-14.1-24.6-3.4,1.1-6.3,2.4-8.9,4.8Z" fill="#d6161c" stroke-width="0"></path></g><path id="Caminho_151" data-name="Caminho 151" d="M47.2,14.3c0,.5,0,2.2-3.5,2.2h-3.8c-3,0-4.2-.8-4.2-3v-2.6c0-2.5,1.3-3,3.7-3h4.1c2.4,0,3.3.6,3.3,2.2v.7h2.8v-.7c0-3-2.1-4.6-6.2-4.6h-3.8c-3.5,0-7,.7-7,5.4v2.8c0,3.5,2.1,5.4,5.9,5.4h5.1c4.4,0,6.2-1.4,6.2-4.7v-.7h-2.8v.8h0ZM66.9,10.4h-11.7c.2-2.2,1-2.6,4.2-2.6h3.3c2.8,0,4.3.8,4.3,2.2,0,0,0,.2,0,.4h0ZM62.6,5.4h-3.6c-3.4,0-6.9.7-6.9,5.4v2.7c0,4.8,3.5,5.5,6.6,5.5h4.1c3.3,0,7.1-.5,7.1-4.1v-.6h-3v.4c-.1,1.5-.9,1.9-3.8,1.9h-3.1c-3.9,0-5-.7-5-3.2v-.4h14.7v-1.8c0-5-3.6-5.7-7.2-5.7h0ZM79.4,16.4c-3,0-4.2-.8-4.2-3V3.8h-3v9.7c0,3.5,2.1,5.4,5.9,5.4h2.8v-2.4h-1.6" fill="#00568c" fill-rule="evenodd" stroke-width="0"></path><g id="Grupo_509" data-name="Grupo 509"><path id="Caminho_152" data-name="Caminho 152" d="M45.7,30.5h-.7c0-.2,0-.4,0-.7,0-.2-.2-.4-.5-.4-.3,0-.6,0-.9,0-.7,0-1.2,0-1.4.2-.2.1-.3.4-.3.9s.1.9.4,1c.1,0,.6.1,1.3.1.5,0,.8,0,.9,0,.4,0,.7.1.8.3.3.2.4.7.4,1.4s-.1,1.1-.3,1.3c-.2.2-.5.4-1,.4-.4,0-.8,0-1.1,0-.6,0-1.1,0-1.3-.1-.5-.2-.8-.5-.9-1.2,0-.2,0-.5,0-.7h.7v.2c0,.4,0,.6,0,.7.1.2.3.4.7.5h.9c.5,0,.9,0,1.1,0,.3,0,.4-.2.5-.5,0-.1,0-.4,0-.7s-.1-.8-.4-.9c-.1,0-.6-.1-1.3-.1-.2,0-.5,0-.8,0-.3,0-.5,0-.8-.2-.5-.2-.7-.7-.7-1.4s.2-1.2.5-1.4c.3-.2.9-.4,1.8-.4s1.1,0,1.4.1c.5.1.7.5.8,1,.1.1.1.3.1.6Z" fill="#d6141c" stroke-width="0"></path><path id="Caminho_153" data-name="Caminho 153" d="M50.6,32.9h.7v.3c0,.4,0,.7-.1,1-.1.3-.3.6-.6.7-.2.1-.6.2-1,.2h-.9c-.4,0-.8,0-1.2-.1-.6-.2-1-.7-1-1.6,0-.4,0-.9,0-1.4,0-1,0-1.6,0-1.8.1-.7.6-1.1,1.4-1.3.3,0,.7,0,1.4,0s1.1,0,1.4.2c.3.2.5.5.6,1,0,.2,0,.4,0,.7h-.7v-.2c0-.5-.1-.8-.3-1-.2-.1-.5-.2-1-.2s-.9,0-1.1,0c-.5,0-.8.2-.9.4-.1.2-.2.6-.2,1.1,0,1.5,0,2.4.1,2.8,0,.4.3.6.6.7.2,0,.5,0,1,0,.9,0,1.4,0,1.6-.2.1-.1.2-.4.2-.9,0-.1,0-.2,0-.3Z" fill="#d6141c" stroke-width="0"></path><path id="Caminho_154" data-name="Caminho 154" d="M56.9,28.8v6.1h-.7v-2.9h-3.6v2.9h-.7v-6.1h.7v2.7h3.6v-2.7h.7Z" fill="#d6141c" stroke-width="0"></path><path id="Caminho_155" data-name="Caminho 155" d="M60.3,28.8c.8,0,1.4,0,1.7.2.5.2.8.7.9,1.5,0,.2,0,.6,0,1.2,0,.9,0,1.5,0,1.8,0,.4-.2.8-.3,1-.3.4-.7.6-1.3.7-.3,0-.6,0-1,0-.8,0-1.4,0-1.7-.2-.3-.2-.6-.4-.7-.7-.1-.2-.2-.6-.2-1,0-.2,0-.7,0-1.6,0-.4,0-.7,0-1.1,0-.5.2-.8.4-1.1.2-.3.7-.5,1.2-.6.3,0,.7,0,1.1,0ZM60.3,29.4c-.7,0-1.2,0-1.4.1-.3.1-.5.5-.5,1,0,.2,0,.6,0,1.4s0,1.2,0,1.4c0,.2,0,.5.2.7.1.2.3.4.5.4.2,0,.6,0,1.2,0s.8,0,.9,0c.4,0,.7-.1.8-.3.2-.2.3-.7.3-1.2v-2c0-.3,0-.7-.2-1-.1-.3-.4-.4-.8-.5-.3,0-.7,0-1,0Z" fill="#d6141c" stroke-width="0"></path><path id="Caminho_156" data-name="Caminho 156" d="M66,28.8c.8,0,1.4,0,1.7.2.5.2.8.7.9,1.5,0,.2,0,.6,0,1.2,0,.9,0,1.5,0,1.8,0,.4-.2.8-.3,1-.3.4-.7.6-1.3.7-.3,0-.6,0-1,0-.8,0-1.4,0-1.7-.2-.3-.2-.6-.4-.7-.7-.1-.2-.2-.6-.2-1,0-.2,0-.7,0-1.6,0-.4,0-.7,0-1.1,0-.5.2-.8.4-1.1.2-.3.7-.5,1.2-.6.3,0,.7,0,1.1,0ZM65.9,29.4c-.7,0-1.2,0-1.4.1-.3.1-.5.5-.5,1,0,.2,0,.6,0,1.4s0,1.2,0,1.4c0,.2,0,.5.2.7.1.2.3.4.5.4.2,0,.6,0,1.2,0s.8,0,.9,0c.4,0,.7-.1.8-.3.2-.2.3-.7.3-1.2v-2c0-.3,0-.7-.2-1-.1-.3-.4-.4-.8-.5-.3,0-.7,0-1,0h0Z" fill="#d6141c" stroke-width="0"></path><path id="Caminho_157" data-name="Caminho 157" d="M70,28.8v5.5h3.2v.7h-3.9v-6.1h.7Z" fill="#d6141c" stroke-width="0"></path></g><g id="Grupo_510" data-name="Grupo 510"><path id="Caminho_158" data-name="Caminho 158" d="M38.9,23.7v3.6h-.4v-3.6h.4Z" fill="#d6161c" stroke-width="0"></path><path id="Caminho_159" data-name="Caminho 159" d="M42.7,23.7v3.6h-.7l-2-3.3h0v3.3h-.4v-3.6h.7l2,3.3h0v-3.3h.4Z" fill="#d6161c" stroke-width="0"></path><path id="Caminho_160" data-name="Caminho 160" d="M44.7,24v3.2h-.4v-3.2h-1.2v-.4h2.7v.4h-1.2Z" fill="#d6161c" stroke-width="0"></path><path id="Caminho_161" data-name="Caminho 161" d="M46.5,24v1.2h1.8v.4h-1.8v1.3h1.9v.4h-2.3v-3.6h2.3v.4h-1.9Z" fill="#d6161c" stroke-width="0"></path><path id="Caminho_162" data-name="Caminho 162" d="M48.9,27.3v-3.6h1.7c.4,0,.7,0,.8.2s.2.4.2.8c0,.3,0,.5-.1.6,0,.2-.3.3-.5.3h0c.4,0,.6.3.6.7v.9h-.4v-.8c0-.1,0-.3,0-.4,0-.1-.2-.2-.3-.2-.1,0-.2,0-.3,0h-1.2v1.5h-.4ZM49.3,25.5h1.2c.3,0,.5,0,.6-.1.1,0,.2-.3.2-.5s0-.5-.1-.6c0-.1-.3-.2-.5-.2h-1.3v1.4Z" fill="#d6161c" stroke-width="0"></path><path id="Caminho_163" data-name="Caminho 163" d="M54.5,26.1h.4v.2c0,.2,0,.4,0,.6,0,.2-.2.3-.4.4-.2,0-.4,0-.6.1h-.5c-.2,0-.5,0-.7,0-.4-.1-.5-.4-.6-.9,0-.3,0-.5,0-.8,0-.6,0-.9,0-1.1,0-.4.4-.7.8-.7.3,0,.5,0,.8,0,.4,0,.7,0,.8.1.2.1.3.3.4.6,0,.1,0,.2,0,.4h-.4c0-.4,0-.6-.2-.7,0,0-.3-.1-.6-.1h-.6c-.3,0-.5.1-.5.2,0,.1-.1.4-.1.7,0,.9,0,1.4,0,1.6,0,.2.2.4.4.4.2,0,.4,0,.6,0,.5,0,.8,0,1-.1,0,0,.1-.2.1-.5,0,0,0-.2,0-.3Z" fill="#d6161c" stroke-width="0"></path><path id="Caminho_164" data-name="Caminho 164" d="M57.8,23.7h.4v2.5c0,.3,0,.5-.1.7-.1.2-.3.3-.5.4-.3,0-.5,0-.8,0-.5,0-.8,0-.9,0-.2,0-.4-.2-.5-.4,0-.2,0-.4,0-.6v-2.5h.4v2.5c0,.1,0,.3,0,.4,0,.1.2.2.3.3.2,0,.4,0,.6,0,.2,0,.4,0,.6,0,.2,0,.4-.1.4-.3,0-.2,0-.3,0-.5v-2.5h0Z" fill="#d6161c" stroke-width="0"></path><path id="Caminho_165" data-name="Caminho 165" d="M59.3,23.7v3.2h1.8v.4h-2.3v-3.6h.4Z" fill="#d6161c" stroke-width="0"></path><path id="Caminho_166" data-name="Caminho 166" d="M62.3,24v3.2h-.4v-3.2h-1.2v-.4h2.7v.4h-1.2Z" fill="#d6161c" stroke-width="0"></path><path id="Caminho_167" data-name="Caminho 167" d="M66.3,23.7h.4v2.5c0,.3,0,.5-.1.7-.1.2-.3.3-.5.4-.3,0-.5,0-.8,0-.5,0-.8,0-.9,0-.2,0-.4-.2-.5-.4,0-.2,0-.4,0-.6v-2.5h.4v2.5c0,.1,0,.3,0,.4,0,.1.2.2.3.3.2,0,.4,0,.6,0,.2,0,.4,0,.6,0,.2,0,.4-.1.4-.3,0-.2,0-.3,0-.5v-2.5h0Z" fill="#d6161c" stroke-width="0"></path><path id="Caminho_168" data-name="Caminho 168" d="M67.4,27.3v-3.6h1.7c.4,0,.7,0,.8.2s.2.4.2.8,0,.5-.1.6c0,.2-.3.3-.5.3h0c.4,0,.6.3.6.7v.9h-.4v-.8c0-.1,0-.3,0-.4,0-.1-.2-.2-.3-.2-.1,0-.2,0-.3,0h-1.2v1.5h-.4ZM67.8,25.5h1.2c.3,0,.5,0,.6-.1.1,0,.2-.3.2-.5s0-.5-.1-.6c0-.1-.3-.2-.5-.2h-1.3v1.4Z" fill="#d6161c" stroke-width="0"></path><path id="Caminho_169" data-name="Caminho 169" d="M73,26.5h-1.8l-.3.8h-.4l1.3-3.6h.6l1.4,3.6h-.4l-.3-.8ZM72.9,26.2l-.8-2.2-.8,2.2h1.6Z" fill="#d6161c" stroke-width="0"></path><path id="Caminho_170" data-name="Caminho 170" d="M74.4,23.7v3.2h1.8v.4h-2.3v-3.6h.4Z" fill="#d6161c" stroke-width="0"></path></g></g></g></svg>